<?xml version="1.0" encoding="UTF-8"?>
<svg width="120px" height="162px" viewBox="0 0 120 162" version="1.1" xmlns="http://www.w3.org/2000/svg" xmlns:xlink="http://www.w3.org/1999/xlink">
    <!-- Generator: Sketch 48.1 (47250) - http://www.bohemiancoding.com/sketch -->
    <title>Page 1</title>
    <desc>Created with Sketch.</desc>
    <defs>
        <polygon id="path-1" points="0.503044776 21.5388312 23.3388657 21.5388312 23.3388657 0.00017949026 0.503044776 0.00017949026"></polygon>
        <polygon id="path-3" points="0.00573134328 22.7354329 23.8863284 22.7354329 23.8863284 0.398647868 0.00573134328 0.398647868"></polygon>
        <polygon id="path-5" points="9.06059701 0.357783918 0.207462687 0.357783918 0.207462687 13.3824946 9.06059701 13.3824946 9.06059701 0.357783918"></polygon>
        <polygon id="path-7" points="4.28423881 0.357783918 0.323044776 0.357783918 0.323044776 12.6984573 4.28423881 12.6984573 4.28423881 0.357783918"></polygon>
    </defs>
    <g id="Audience-Alt.1" stroke="none" stroke-width="1" fill="none" fill-rule="evenodd" transform="translate(-89.000000, -306.000000)">
        <g id="01.-Family" transform="translate(30.000000, 270.000000)">
            <g id="Familly-Copy" transform="translate(39.000000, 36.000000)">
                <g id="Page-1" transform="translate(20.000000, 0.000000)">
                    <polygon id="Fill-1" fill="#416CB3" points="0 106.13995 8.36358209 140.243099 11.1504478 104.444365 10.7522388 71.1387508"></polygon>
                    <polygon id="Fill-2" fill="#3965AF" points="10.752 71.13905 15.9263284 106.837868 8.3639403 140.2428 11.150209 104.444664"></polygon>
                    <polygon id="Fill-3" fill="#416CB3" points="106.672597 68.1475457 105.18006 104.045598 115.627821 135.85546 109.956179 103.646531"></polygon>
                    <polygon id="Fill-4" fill="#3965AF" points="109.956358 103.64683 115.627403 135.855161 119.807104 101.353543 106.672776 68.1478448"></polygon>
                    <polygon id="Fill-5" fill="#112849" points="17.8164776 63.5606721 58.6128955 59.372566 99.3090149 63.5606721 97.7173731 71.836968 60.1245373 84.4012862 20.5030448 71.8872252"></polygon>
                    <polygon id="Fill-6" fill="#3863AD" points="16.6224478 86.7944896 13.8367761 76.2243082 17.8164776 63.5606721 20.5030448 71.8866269"></polygon>
                    <polygon id="Fill-7" fill="#112849" points="99.3090149 63.5606721 103.189612 76.1249903 101.995582 86.7944896 97.7173731 71.836968"></polygon>
                    <polygon id="Fill-8" fill="#299AD6" points="16.6224478 86.7944896 60.1245373 101.15371 60.1245373 84.4012862 20.5030448 71.8866269"></polygon>
                    <polygon id="Fill-9" fill="#4B6EB4" points="60.1246567 101.15371 101.995701 86.7944896 97.7174925 71.836968 60.1246567 84.4012862"></polygon>
                    <g id="Group-52" transform="translate(10.746269, 0.240517)">
                        <path d="M17.2194627,132.423905 C17.1203582,132.124755 5.8761791,86.5539727 5.8761791,86.5539727 L49.3782687,100.913193 L17.2194627,132.423905 Z" id="Fill-10" fill="#4F78BB"></path>
                        <polygon id="Fill-12" fill="#3863AD" points="49.3783881 100.913193 79.6076418 132.423905 91.2494328 86.5539727"></polygon>
                        <polygon id="Fill-14" fill="#547DBE" points="17.2194627 132.423905 79.6075224 132.423905 49.3782687 100.913193"></polygon>
                        <g id="Group-18" transform="translate(25.074627, 140.002403)">
                            <mask id="mask-2" fill="white">
                                <use xlink:href="#path-1"></use>
                            </mask>
                            <g id="Clip-17"></g>
                            <polygon id="Fill-16" fill="#547DBE" mask="url(#mask-2)" points="0.503044776 0.00017949026 23.3388657 21.5390107 22.0952836 0.498564112"></polygon>
                        </g>
                        <g id="Group-21" transform="translate(51.940299, 138.805801)">
                            <mask id="mask-4" fill="white">
                                <use xlink:href="#path-3"></use>
                            </mask>
                            <g id="Clip-20"></g>
                            <polygon id="Fill-19" fill="#547DBE" mask="url(#mask-4)" points="2.39379104 1.89440003 23.8863284 0.398647868 0.00573134328 22.7356124"></polygon>
                        </g>
                        <polygon id="Fill-22" fill="#112849" points="25.5776716 140.002582 30.353791 136.01371 44.7818507 136.811245 47.1699104 140.500967"></polygon>
                        <polygon id="Fill-24" fill="#112849" points="54.3340896 140.700201 55.8266269 136.01371 69.6576716 134.617875 75.8266269 139.204449"></polygon>
                        <polygon id="Fill-26" fill="#F4F5F5" points="0.00573134328 46.8668813 23.8863284 13.6611832 48.8612537 62.621938"></polygon>
                        <path d="M82.4934925,21.0403269 C82.393791,21.3394774 48.8612537,62.6222372 48.8612537,62.6222372 L23.8863284,13.6614823 L82.4934925,21.0403269 Z" id="Fill-28" fill="#DFE0E0"></path>
                        <polygon id="Fill-30" fill="#C7C7C8" points="97.4188657 58.2345978 48.8612537 62.621938 82.4934925 21.0400278"></polygon>
                        <polygon id="Fill-32" fill="#3863AD" points="23.8863284 13.6611832 53.8367761 9.47307711 82.4934925 21.0400278"></polygon>
                        <g id="Group-36" transform="translate(25.671642, 0.000000)">
                            <mask id="mask-6" fill="white">
                                <use xlink:href="#path-5"></use>
                            </mask>
                            <g id="Clip-35"></g>
                            <polygon id="Fill-34" fill="#299AD6" mask="url(#mask-6)" points="0.207462687 13.3824946 9.06059701 0.357484768 5.09880597 12.6986367"></polygon>
                        </g>
                        <g id="Group-39" transform="translate(30.447761, 0.000000)">
                            <mask id="mask-8" fill="white">
                                <use xlink:href="#path-7"></use>
                            </mask>
                            <g id="Clip-38"></g>
                            <path d="M2.23170149,12.4316151 C2.19468657,11.8662208 4.28423881,0.357305278 4.28423881,0.357305278 L0.323044776,12.6984573 L2.23170149,12.4316151 Z" id="Fill-37" fill="#3863AD" mask="url(#mask-8)"></path>
                        </g>
                        <polygon id="Fill-40" fill="#3863AD" points="73.9358806 4.88620352 79.6821493 19.9059485 75.4660299 18.2037825"></polygon>
                        <polygon id="Fill-42" fill="#299AD6" points="73.1400597 17.2647493 73.9358806 4.88650267 75.4660299 18.2034834"></polygon>
                        <polygon id="Fill-44" fill="#0E2039" points="0.00573134328 46.8668813 47.6672239 66.3116595 97.4188657 58.2345978 48.8612537 62.621938"></polygon>
                        <polygon id="Fill-46" fill="#3863AD" points="17.2194627 132.423905 33.9358806 137.908529 61.1997612 137.908529 79.6075224 132.423905"></polygon>
                        <path d="M24.3276418,38.1483214 C23.3945075,41.2313658 20.7186866,43.1471251 18.3521194,42.4273692 C15.9861493,41.7076132 14.8243582,38.6251672 15.7580896,35.5427211 C16.6912239,32.4596768 19.3664478,30.5439174 21.7330149,31.263075 C24.0989851,31.982831 25.2607761,35.065277 24.3276418,38.1483214" id="Fill-48" fill="#221F1F"></path>
                        <path d="M83.169791,42.5128664 C83.8050149,45.6306122 82.3811343,48.5551068 79.9882985,49.0451152 C77.5954627,49.535722 75.1399403,47.4057709 74.5035224,44.2886234 C73.8677015,41.1708775 75.2921791,38.2463829 77.6850149,37.7557762 C80.0778507,37.2651695 82.5339701,39.3957189 83.169791,42.5128664" id="Fill-50" fill="#221F1F"></path>
                    </g>
                </g>
            </g>
        </g>
    </g>
</svg>